v 8.763716697692871 5.497029304504395 0.1102736294269562
v 6.732373237609863 5.48565673828125 1.361511826515198
v 6.728400230407715 -0.003276312723755836 1.367036581039429
v 8.765369415283203 -0.01927532069385052 0.1123484745621681
vn 6.867899864040871 0.006251495602725754 11.14986307270498
f 1//1 2//1 3//1 4//1 
l 1 2 3 4 
v 8.765369415283203 -0.01927532069385052 0.02566788159310818
v 6.728400230407715 -0.003276312723755836 0.02566788159310818
v 6.732373237609863 5.48565673828125 0.02566788159310818
v 8.763716697692871 5.497029304504395 0.02566788159310818
vn 0 0 -11.18085104691569
f 5//2 6//2 7//2 8//2 
l 5 6 7 8 
v 8.763716697692871 5.497029304504395 0.1102736294269562
v 8.763716697692871 5.497029304504395 0.02566788159310818
v 6.732373237609863 5.48565673828125 0.02566788159310818
v 6.732373237609863 5.48565673828125 1.361511826515198
vn -0.0009621844700991034 0.1718633325477192 0
f 9//3 10//3 11//3 12//3 
l 9 10 11 12 
v 6.732373237609863 5.48565673828125 1.361511826515198
v 6.732373237609863 5.48565673828125 0.02566788159310818
v 6.728400230407715 -0.003276312723755836 0.02566788159310818
v 6.728400230407715 -0.003276312723755836 1.367036581039429
vn -7.332357980267768 0.005307317614121843 0
f 13//4 14//4 15//4 16//4 
l 13 14 15 16 
v 6.728400230407715 -0.003276312723755836 1.367036581039429
v 6.728400230407715 -0.003276312723755836 0.02566788159310818
v 8.765369415283203 -0.01927532069385052 0.02566788159310818
v 8.765369415283203 -0.01927532069385052 0.1123484745621681
vn -0.02146056851327722 -2.732326706328665 -0
f 17//5 18//5 19//5 20//5 
l 17 18 19 20 
v 8.765369415283203 -0.01927532069385052 0.1123484745621681
v 8.765369415283203 -0.01927532069385052 0.02566788159310818
v 8.763716697692871 5.497029304504395 0.02566788159310818
v 8.763716697692871 5.497029304504395 0.1102736294269562
vn 0.4781565559101518 0.0001432585407403764 0
f 21//6 22//6 23//6 24//6 
l 21 22 23 24 
v 2.245711803436279 0.03193216025829315 1.278771042823792
v 4.451454162597656 0.01460755243897438 0.01040721498429775
v 4.46056604385376 5.472938060760498 0.007988371886312962
v 2.246982574462891 5.460545539855957 1.280845642089844
vn 6.923190882655827 -0.006221835907420203 12.03982867227689
f 25//7 26//7 27//7 28//7 
l 25 26 27 28 
v 2.246982574462891 5.460545539855957 0.007988381199538708
v 4.46056604385376 5.472938060760498 0.007988371886312962
v 4.451454162597656 0.01460755243897438 0.007988381199538708
v 2.245711803436279 0.03193216025829315 0.007988381199538708
vn -5.071924987637422e-08 -2.053074155128343e-08 -12.08235726451344
f 29//8 30//8 31//8 32//8 
l 29 30 31 32 
v 2.245711803436279 0.03193216025829315 1.278771042823792
v 2.245711803436279 0.03193216025829315 0.007988381199538708
v 4.451454162597656 0.01460755243897438 0.007988381199538708
v 4.451454162597656 0.01460755243897438 0.01040721498429775
vn -0.02201581123623025 -2.803019146032453 -0
f 33//9 34//9 35//9 36//9 
l 33 34 35 36 
v 4.46056604385376 5.472938060760498 0.007988371886312962
v 2.246982574462891 5.460545539855957 0.007988381199538708
v 2.246982574462891 5.460545539855957 1.280845642089844
vn -0.01577391021407992 2.81757579160092 0
f 37//10 38//10 39//10 
l 37 38 39 
v 2.246982574462891 5.460545539855957 1.280845642089844
v 2.246982574462891 5.460545539855957 0.007988381199538708
v 2.245711803436279 0.03193216025829315 0.007988381199538708
v 2.245711803436279 0.03193216025829315 1.278771042823792
vn -6.909849956787144 0.001617510128151256 0
f 40//11 41//11 42//11 43//11 
l 40 41 42 43 
v -0.006615810096263885 0.04962266236543655 0.006353896576911211
v 2.245711803436279 0.03193216025829315 1.278771042823792
v 2.246982574462891 5.460545539855957 1.280845642089844
v -0.007696711458265781 5.447922706604004 0.007092292420566082
vn -6.907497445247979 -0.003055726370729817 12.22703829863756
f 44//12 45//12 46//12 47//12 
l 44 45 46 47 
v -0.007696711458265781 5.447922706604004 0.007092292420566082
v 2.246982574462891 5.460545539855957 0.006353880744427443
v 2.245711803436279 0.03193216025829315 0.006353880744427443
v -0.006615810096263885 0.04962266236543655 0.006353896576911211
vn -0.004008551504737355 9.383521637484904e-07 -12.23976609752253
f 48//13 49//13 50//13 51//13 
l 48 49 50 51 
v -0.006615810096263885 0.04962266236543655 0.006353896576911211
v 2.245711803436279 0.03193216025829315 0.006353880744427443
v 2.245711803436279 0.03193216025829315 1.278771042823792
vn -0.02250969848693042 -2.865900310084065 0
f 52//14 53//14 54//14 
l 52 53 54 
v 2.245711803436279 0.03193216025829315 1.278771042823792
v 2.245711803436279 0.03193216025829315 0.006353880744427443
v 2.246982574462891 5.460545539855957 0.006353880744427443
v 2.246982574462891 5.460545539855957 1.280845642089844
vn 6.907460830493725 -0.001616950863333466 0
f 55//15 56//15 57//15 58//15 
l 55 56 57 58 
v 2.246982574462891 5.460545539855957 1.280845642089844
v 2.246982574462891 5.460545539855957 0.006353880744427443
v -0.007696711458265781 5.447922706604004 0.007092292420566082
vn -0.01608769698445123 2.87357017438268 0
f 59//16 60//16 61//16 
l 59 60 61 
v 6.732373237609863 5.48565673828125 1.361511826515198
v 4.46056604385376 5.472938060760498 0.007988371886312962
v 4.451454162597656 0.01460755243897438 0.01040721498429775
v 6.728400230407715 -0.003276312723755836 1.367036581039429
vn -7.388009130614922 0.01782829014649856 12.40015862362394
f 62//17 63//17 64//17 65//17 
l 62 63 64 65 
v 6.728400230407715 -0.003276312723755836 0.007988186553120613
v 4.451454162597656 0.01460755243897438 0.007988381199538708
v 4.46056604385376 5.472938060760498 0.007988371886312962
v 6.732373237609863 5.48565673828125 0.007988186553120613
vn -1.062611038694927e-06 -1.943211769273034e-08 -12.42848714338614
f 66//18 67//18 68//18 69//18 
l 66 67 68 69 
v 6.732373237609863 5.48565673828125 1.361511826515198
v 6.732373237609863 5.48565673828125 0.007988186553120613
v 4.46056604385376 5.472938060760498 0.007988371886312962
vn -0.01721503069339203 3.074944742184793 0
f 70//19 71//19 72//19 
l 70 71 72 
v 4.451454162597656 0.01460755243897438 0.01040721498429775
v 4.451454162597656 0.01460755243897438 0.007988381199538708
v 6.728400230407715 -0.003276312723755836 0.007988186553120613
v 6.728400230407715 -0.003276312723755836 1.367036581039429
vn -4.325809725768716e-05 -0.005507554074893228 -0
f 73//20 74//20 75//20 76//20 
l 73 74 75 76 
v 6.728400230407715 -0.003276312723755836 1.367036581039429
v 6.728400230407715 -0.003276312723755836 0.007988186553120613
v 6.732373237609863 5.48565673828125 0.007988186553120613
v 6.732373237609863 5.48565673828125 1.361511826515198
vn 7.459725650411186 -0.005399509059362373 0
f 77//21 78//21 79//21 80//21 
l 77 78 79 80 
