v 7.349899291992188 -0.02562123909592628 0.002986676758155227
v 7.225698947906494 5.676666736602783 0.001564627746120095
v -0.01192273758351803 5.709227085113525 0.0001954206236405298
v -0.00461557786911726 0.004660521168261766 0.001596043701283634
vn -0.007761310899325036 0.01012219677159857 41.26695910333734
f 1//1 2//1 3//1 4//1 
l 1 2 3 4 
v -0.00461557786911726 0.004660521168261766 -0.01244168635457754
v -0.01192273758351803 5.709227085113525 -0.01244168635457754
v 7.225698947906494 5.676666736602783 -0.01244168635457754
v 7.349899291992188 -0.02562123909592628 -0.01244168635457754
vn 0 0 -41.28725674586456
f 5//2 6//2 7//2 8//2 
l 5 6 7 8 
v 7.349899291992188 -0.02562123909592628 0.002986676758155227
v 7.349899291992188 -0.02562123909592628 -0.01244168635457754
v 7.225698947906494 5.676666736602783 -0.01244168635457754
v 7.225698947906494 5.676666736602783 0.001564627746120095
vn 0.08797696946244958 0.001916208007280429 0
f 9//3 10//3 11//3 12//3 
l 9 10 11 12 
v 7.225698947906494 5.676666736602783 0.001564627746120095
v 7.225698947906494 5.676666736602783 -0.01244168635457754
v -0.01192273758351803 5.709227085113525 -0.01244168635457754
v -0.01192273758351803 5.709227085113525 0.0001954206236405298
vn 0.0004560504684696376 0.1013724026689937 0
f 13//4 14//4 15//4 16//4 
l 13 14 15 16 
v -0.01192273758351803 5.709227085113525 0.0001954206236405298
v -0.01192273758351803 5.709227085113525 -0.01244168635457754
v -0.00461557786911726 0.004660521168261766 -0.01244168635457754
v -0.00461557786911726 0.004660521168261766 0.001596043701283634
vn -0.07208921793294218 -9.234135901780792e-05 -0
f 17//5 18//5 19//5 20//5 
l 17 18 19 20 
v -0.00461557786911726 0.004660521168261766 0.001596043701283634
v -0.00461557786911726 0.004660521168261766 -0.01244168635457754
v 7.349899291992188 -0.02562123909592628 -0.01244168635457754
v 7.349899291992188 -0.02562123909592628 0.002986676758155227
vn -0.0004250871762049752 -0.10324069443493 -0
f 21//6 22//6 23//6 24//6 
l 21 22 23 24 
