v -0.008767211809754372 0.0262760091573 0.006687624379992485
v 6.561267852783203 -0.0540207177400589 -0.03603263571858406
v 6.522168159484863 3.473274707794189 1.870915174484253
v -0.009564923122525215 3.478541851043701 1.873076438903809
vn -0.002434689500031451 -12.52704363031392 23.1713150515438
f 1//1 2//1 3//1 4//1 
l 1 2 3 4 
v -0.009564923122525215 3.478541851043701 -0.03603267669677734
v 6.522168159484863 3.473274707794189 -0.03603267669677734
v 6.561267852783203 -0.0540207177400589 -0.03603267669677734
v -0.008767211809754372 0.0262760091573 -0.03603267669677734
vn 0 0 -23.03914627940614
f 5//2 6//2 7//2 8//2 
l 5 6 7 8 
v -0.008767211809754372 0.0262760091573 0.006687624379992485
v -0.008767211809754372 0.0262760091573 -0.03603267669677734
v 6.561267852783203 -0.0540207177400589 -0.03603263571858406
vn -0.003430300348534334 -0.2806738760443461 -0
f 9//3 10//3 11//3 
l 9 10 11 
v 6.561267852783203 -0.0540207177400589 -0.03603267669677734
v 6.522168159484863 3.473274707794189 -0.03603267669677734
v 6.522168159484863 3.473274707794189 1.870915174484253
vn 6.726368432203213 0.0745610761171065 -0
f 12//4 13//4 14//4 
l 12 13 14 
v 6.522168159484863 3.473274707794189 1.870915174484253
v 6.522168159484863 3.473274707794189 -0.03603267669677734
v -0.009564923122525215 3.478541851043701 -0.03603267669677734
v -0.009564923122525215 3.478541851043701 1.873076438903809
vn 0.01004416750151904 12.45567436636621 0
f 15//5 16//5 17//5 18//5 
l 15 16 17 18 
v -0.009564923122525215 3.478541851043701 1.873076438903809
v -0.009564923122525215 3.478541851043701 -0.03603267669677734
v -0.008767211809754372 0.0262760091573 -0.03603267669677734
v -0.008767211809754372 0.0262760091573 0.006687624379992485
vn -6.59075218822186 -0.001522917938828527 -0
f 19//6 20//6 21//6 22//6 
l 19 20 21 22 
v -0.009829921647906303 4.62537956237793 1.260733723640442
v -0.009564923122525215 3.478541851043701 1.873076558113098
v 6.522168159484863 3.473274707794189 1.870915293693542
v 6.510104656219482 4.561576366424561 1.289836168289185
vn 0.005703916967490841 3.999660522554513 7.490836423718329
f 23//7 24//7 25//7 26//7 
l 23 24 25 26 
v 6.510104656219482 4.561576366424561 0.03878289088606834
v 6.522168159484863 3.473274707794189 0.03878289088606834
v -0.009564923122525215 3.478541851043701 0.03878289088606834
v -0.009829921647906303 4.62537956237793 0.03878289088606834
vn -0 -0 -7.108432407332698
f 27//8 28//8 29//8 30//8 
l 27 28 29 30 
v -0.009829921647906303 4.62537956237793 1.260733723640442
v -0.009829921647906303 4.62537956237793 0.03878289088606834
v -0.009564923122525215 3.478541851043701 0.03878289088606834
v -0.009564923122525215 3.478541851043701 1.873076558113098
vn -1.40137929639898 -0.0003238151687681018 -0
f 31//9 32//9 33//9 34//9 
l 31 32 33 34 
v -0.009564923122525215 3.478541851043701 1.873076558113098
v -0.009564923122525215 3.478541851043701 0.03878289088606834
v 6.522168159484863 3.473274707794189 0.03878289088606834
v 6.522168159484863 3.473274707794189 1.870915293693542
vn -0.009661487506956945 -11.98111662944402 -0
f 35//10 36//10 37//10 38//10 
l 35 36 37 38 
v 6.522168159484863 3.473274707794189 1.870915293693542
v 6.522168159484863 3.473274707794189 0.03878289088606834
v 6.510104656219482 4.561576366424561 0.03878289088606834
v 6.510104656219482 4.561576366424561 1.289836168289185
vn 1.993912732805821 0.02210193522387804 0
f 39//11 40//11 41//11 42//11 
l 39 40 41 42 
v 6.510104656219482 4.561576366424561 1.289836168289185
v 6.510104656219482 4.561576366424561 0.03878289088606834
v -0.009829921647906303 4.62537956237793 0.03878289088606834
v -0.009829921647906303 4.62537956237793 1.260733723640442
vn 0.07982119740625571 8.1567855220949 0
f 43//12 44//12 45//12 46//12 
l 43 44 45 46 
