v 7.083301544189453 0.01978675276041031 0.05229463428258896
v 7.082929611206055 0.04651866108179092 0.1024587824940681
v 3.605842590332031 2.523444175720215 4.742410659790039
v 3.638784646987915 2.555161714553833 4.802010059356689
v 0.0614580400288105 0.01832928135991096 0.03291935101151466
vn -0.0002180904256224858 -0.1726993575147873 0.09202792117115166
f 1//1 2//1 3//1 4//1 5//1 
l 1 2 3 4 5 
v 0.0614580400288105 0.01832928135991096 0.02304180338978767
v 3.638784646987915 2.555161714553833 0.02304180338978767
v 3.605842590332031 2.523444175720215 0.02304180338978767
v 7.082929611206055 0.04651866108179092 0.02304180338978767
v 7.083301544189453 0.01978675276041031 0.02304180338978767
vn 0 -0 -0.02989551783600319
f 6//2 7//2 8//2 9//2 10//2 
l 6 7 8 9 10 
v 7.083301544189453 0.01978675276041031 0.05229463428258896
v 7.083301544189453 0.01978675276041031 0.02304180338978767
v 7.082929611206055 0.04651866108179092 0.02304180338978767
v 7.082929611206055 0.04651866108179092 0.1024587824940681
vn 0.0007819839935672146 1.088009266680956e-05 0
f 11//3 12//3 13//3 14//3 
l 11 12 13 14 
v 3.605842590332031 2.523444175720215 4.742410659790039
v 3.605842590332031 2.523444175720215 0.02304180338978767
v 3.638784646987915 2.555161714553833 0.02304180338978767
v 3.638784646987915 2.555161714553833 4.802010059356689
vn 0.1496867649730431 -0.1554657162475506 0
f 15//4 16//4 17//4 18//4 
l 15 16 17 18 
v 3.638784646987915 2.555161714553833 4.802010059356689
v 3.638784646987915 2.555161714553833 0.02304180338978767
v 0.0614580400288105 0.01832928135991096 0.02304180338978767
v 0.0614580400288105 0.01832928135991096 0.03291935101151466
vn -12.12344166894103 17.09593029588335 0
f 19//5 20//5 21//5 22//5 
l 19 20 21 22 
v 0.0614580400288105 0.01832928135991096 0.03291935101151466
v 0.0614580400288105 0.01832928135991096 0.02304180338978767
v 7.083301544189453 0.01978675276041031 0.02304180338978767
v 7.083301544189453 0.01978675276041031 0.05229463428258896
vn 1.43962431657374e-05 -0.06935859360466107 0
f 23//6 24//6 25//6 26//6 
l 23 24 25 26 
v -0.09288039058446884 5.229096412658691 -0.1723487079143524
v 0.01799439638853073 0.01836878806352615 -0.02502119541168213
v 0.0614580400288105 0.01832928135991096 0.03291935101151466
v 3.638784646987915 2.555161714553833 4.802010059356689
vn -0.3019065854071193 -2.075523994621298e-05 0.2264728282846184
f 27//7 28//7 29//7 30//7 
l 27 28 29 30 
v 3.638784646987915 2.555161714553833 -0.172348752617836
v 0.0614580400288105 0.01832928135991096 -0.172348752617836
v 0.01799439638853073 0.01836878806352615 -0.172348752617836
v -0.09288039058446884 5.229096412658691 -0.1723487079143524
vn -0 0 -0.1104013092334403
f 31//8 32//8 33//8 34//8 
l 31 32 33 34 
v -0.09288039058446884 5.229096412658691 -0.1723487079143524
v 0.01799439638853073 0.01836878806352615 -0.172348752617836
v 0.01799439638853073 0.01836878806352615 -0.02502119541168213
vn -0.7676837721982305 -0.01633491152048472 0
f 35//9 36//9 37//9 
l 35 36 37 
v 0.01799439638853073 0.01836878806352615 -0.02502119541168213
v 0.01799439638853073 0.01836878806352615 -0.172348752617836
v 0.0614580400288105 0.01832928135991096 -0.172348752617836
v 0.0614580400288105 0.01832928135991096 0.03291935101151466
vn -5.820426136893264e-06 -0.006403392444801204 -0
f 38//10 39//10 40//10 41//10 
l 38 39 40 41 
v 0.0614580400288105 0.01832928135991096 0.03291935101151466
v 0.0614580400288105 0.01832928135991096 -0.172348752617836
v 3.638784646987915 2.555161714553833 -0.172348752617836
v 3.638784646987915 2.555161714553833 4.802010059356689
vn 0.5207307827871478 -0.7343110486733149 0
f 42//11 43//11 44//11 45//11 
l 42 43 44 45 
v 3.638784646987915 2.555161714553833 4.802010059356689
v 3.638784646987915 2.555161714553833 -0.172348752617836
v -0.09288039058446884 5.229096412658691 -0.1723487079143524
vn 13.30111062816234 18.56264086298544 0
f 46//12 47//12 48//12 
l 46 47 48 
v 7.013633728027344 5.028369903564453 0.1743543297052383
v 7.011812686920166 5.15928840637207 -0.06990298628807068
v 6.007265567779541 5.028632640838623 0.1778019964694977
v 3.38439154624939 5.182932376861572 -0.09982336312532425
v 3.381202936172485 5.117345333099365 0.0225597657263279
v -0.09334221482276917 5.250800609588623 -0.2128419876098633
v -0.09288039058446884 5.229096412658691 -0.1723487079143524
v 3.638784646987915 2.555161714553833 4.802010059356689
v 3.632607221603394 2.606488704681396 4.706269264221191
vn 0.0005155388723565579 0.2458190640661542 0.1317517343575219
f 49//13 50//13 51//13 52//13 53//13 54//13 55//13 56//13 57//13 
l 49 50 51 52 53 54 55 56 57 
v 3.632607221603394 2.606488704681396 -0.2128418385982513
v 3.638784646987915 2.555161714553833 -0.2128418385982513
v -0.09288039058446884 5.229096412658691 -0.2128418385982513
v -0.09334221482276917 5.250800609588623 -0.2128419876098633
v 3.381202936172485 5.117345333099365 -0.2128418385982513
v 3.38439154624939 5.182932376861572 -0.2128418385982513
v 6.007265567779541 5.028632640838623 -0.2128418385982513
v 7.011812686920166 5.15928840637207 -0.2128418385982513
v 7.013633728027344 5.028369903564453 -0.2128418385982513
vn -0 -0 -0.1750171024622258
f 58//14 59//14 60//14 61//14 62//14 63//14 64//14 65//14 66//14 
l 58 59 60 61 62 63 64 65 66 
v 7.013633728027344 5.028369903564453 0.1743543297052383
v 7.013633728027344 5.028369903564453 -0.2128418385982513
v 7.011812686920166 5.15928840637207 -0.2128418385982513
v 7.011812686920166 5.15928840637207 -0.06990298628807068
vn 0.05069114264713903 0.0007051001390223632 0
f 67//15 68//15 69//15 70//15 
l 67 68 69 70 
v 7.011812686920166 5.15928840637207 -0.06990298628807068
v 7.011812686920166 5.15928840637207 -0.2128418385982513
v 6.007265567779541 5.028632640838623 -0.2128418385982513
v 6.007265567779541 5.028632640838623 0.1778019964694977
vn -0.01867578517305901 0.1435888123014593 0
f 71//16 72//16 73//16 74//16 
l 71 72 73 74 
v 6.007265567779541 5.028632640838623 0.1778019964694977
v 6.007265567779541 5.028632640838623 -0.2128418385982513
v 3.38439154624939 5.182932376861572 -0.2128418385982513
v 3.38439154624939 5.182932376861572 -0.09982336312532425
vn 0.06027624062994619 1.024609566670108 0
f 75//17 76//17 77//17 78//17 
l 75 76 77 78 
v 3.38439154624939 5.182932376861572 -0.09982336312532425
v 3.38439154624939 5.182932376861572 -0.2128418385982513
v 3.381202936172485 5.117345333099365 -0.2128418385982513
v 3.381202936172485 5.117345333099365 0.0225597657263279
vn -0.007412547696780791 0.0003603718497693364 0
f 79//18 80//18 81//18 82//18 
l 79 80 81 82 
v 3.381202936172485 5.117345333099365 0.0225597657263279
v 3.381202936172485 5.117345333099365 -0.2128418385982513
v -0.09334221482276917 5.250800609588623 -0.2128419876098633
vn 0.03141558619115159 0.8179135028424703 0
f 83//19 84//19 85//19 
l 83 84 85 
v -0.09334221482276917 5.250800609588623 -0.2128419876098633
v -0.09288039058446884 5.229096412658691 -0.2128418385982513
v -0.09288039058446884 5.229096412658691 -0.1723487079143524
vn -0.0008788708826727998 -1.870070923448708e-05 0
f 86//20 87//20 88//20 
l 86 87 88 
v -0.09288039058446884 5.229096412658691 -0.1723487079143524
v -0.09288039058446884 5.229096412658691 -0.2128418385982513
v 3.638784646987915 2.555161714553833 -0.2128418385982513
v 3.638784646987915 2.555161714553833 4.802010059356689
vn -0.1082759871705719 -0.1511068000349551 -0
f 89//21 90//21 91//21 92//21 
l 89 90 91 92 
v 3.638784646987915 2.555161714553833 4.802010059356689
v 3.638784646987915 2.555161714553833 -0.2128418385982513
v 3.632607221603394 2.606488704681396 -0.2128418385982513
v 3.632607221603394 2.606488704681396 4.706269264221191
vn 0.2573972538575262 0.0309788734140426 0
f 93//22 94//22 95//22 96//22 
l 93 94 95 96 
v 3.632607221603394 2.606488704681396 4.706269264221191
v 3.632607221603394 2.606488704681396 -0.2128418385982513
v 7.013633728027344 5.028369903564453 -0.2128418385982513
v 7.013633728027344 5.028369903564453 0.1743543297052383
vn 11.91350269513531 -16.63164502667689 0
f 97//23 98//23 99//23 100//23 
l 97 98 99 100 
v 3.605842590332031 2.523444175720215 4.742410659790039
v 7.082929611206055 0.04651866108179092 0.1024587824940681
v 7.013633728027344 5.028369903564453 0.1743543297052383
v 3.632607221603394 2.606488704681396 4.706269264221191
v 3.638784646987915 2.555161714553833 4.698221206665039
vn 22.93747010969046 0.07154248917734662 17.15068955405684
f 101//24 102//24 103//24 104//24 105//24 
l 101 102 103 104 105 
v 3.638784646987915 2.555161714553833 0.02304180338978767
v 3.632607221603394 2.606488704681396 0.02304180338978767
v 7.013633728027344 5.028369903564453 0.02304180338978767
v 7.082929611206055 0.04651866108179092 0.02304180338978767
v 3.605842590332031 2.523444175720215 0.02304180338978767
vn 0 0 -0.188498904512528
f 106//25 107//25 108//25 109//25 110//25 
l 106 107 108 109 110 
v 7.082929611206055 0.04651866108179092 0.1024587824940681
v 7.082929611206055 0.04651866108179092 0.02304180338978767
v 7.013633728027344 5.028369903564453 0.02304180338978767
v 7.013633728027344 5.028369903564453 0.1743543297052383
vn 0.3956435760248793 0.005503269706416347 0
f 111//26 112//26 113//26 114//26 
l 111 112 113 114 
v 7.013633728027344 5.028369903564453 0.1743543297052383
v 7.013633728027344 5.028369903564453 0.02304180338978767
v 3.632607221603394 2.606488704681396 0.02304180338978767
v 3.632607221603394 2.606488704681396 4.706269264221191
vn -0.3664609626388877 0.5115916622265102 0
f 115//27 116//27 117//27 118//27 
l 115 116 117 118 
v 3.632607221603394 2.606488704681396 4.706269264221191
v 3.632607221603394 2.606488704681396 0.02304180338978767
v 3.638784646987915 2.555161714553833 0.02304180338978767
v 3.638784646987915 2.555161714553833 4.698221206665039
vn -0.2403759696472276 -0.02893028819802801 -0
f 119//28 120//28 121//28 122//28 
l 119 120 121 122 
v 3.638784646987915 2.555161714553833 4.698221206665039
v 3.638784646987915 2.555161714553833 0.02304180338978767
v 3.605842590332031 2.523444175720215 0.02304180338978767
v 3.605842590332031 2.523444175720215 4.742410659790039
vn -0.1482851842775146 0.1540100247791143 0
f 123//29 124//29 125//29 126//29 
l 123 124 125 126 
