v 6.509740352630615 -0.002379633253440261 0.02448145113885403
v 6.519890785217285 3.451523065567017 2.684686660766602
v -0.005758794955909252 3.528270959854126 2.744164228439331
v -0.001662501832470298 -0.003679049434140325 0.02384599670767784
vn 0.00126458329358875 -17.36017073242294 22.53973772084391
f 1//1 2//1 3//1 4//1 
l 1 2 3 4 
v -0.001662501832470298 -0.003679049434140325 0.02384586818516254
v -0.005758794955909252 3.528270959854126 0.02384586818516254
v 6.519890785217285 3.451523065567017 0.02384586818516254
v 6.509740352630615 -0.002379633253440261 0.02384586818516254
vn 0 0 -23.04795371343308
f 5//2 6//2 7//2 8//2 
l 5 6 7 8 
v 6.509740352630615 -0.002379633253440261 0.02448145113885403
v 6.509740352630615 -0.002379633253440261 0.02384586818516254
v 6.519890785217285 3.451523065567017 0.02384586818516254
v 6.519890785217285 3.451523065567017 2.684686660766602
vn 0.002195241679079289 -6.451441924681944e-06 0
f 9//3 10//3 11//3 12//3 
l 9 10 11 12 
v 6.519890785217285 3.451523065567017 2.684686660766602
v 6.519890785217285 3.451523065567017 0.02384586818516254
v -0.005758794955909252 3.528270959854126 0.02384586818516254
v -0.005758794955909252 3.528270959854126 2.744164228439331
vn 0.2042139278638686 17.36371460101678 0
f 13//4 14//4 15//4 16//4 
l 13 14 15 16 
v -0.005758794955909252 3.528270959854126 2.744164228439331
v -0.005758794955909252 3.528270959854126 0.02384586818516254
v -0.001662501832470298 -0.003679049434140325 0.02384599670767784
vn -9.608028457766752 -0.01114322139267388 -0
f 17//5 18//5 19//5 
l 17 18 19 
v -0.001662501832470298 -0.003679049434140325 0.02384586818516254
v 6.509740352630615 -0.002379633253440261 0.02384586818516254
v 6.509740352630615 -0.002379633253440261 0.02448145113885403
vn 8.258867742038517e-07 -0.004138536658914799 0
f 20//6 21//6 22//6 
l 20 21 22 
