v -0.05769635364413261 2.411007165908813 2.339471578598022
v 7.043906211853027 2.399799108505249 2.349435329437256
v 7.085331916809082 4.884304523468018 -0.1050774529576302
v 5.720859050750732 4.741026878356934 0.03668326511979103
v 5.506448745727539 4.357495784759521 0.415616899728775
v 3.024818420410156 4.933711051940918 -0.1532533466815948
v 3.010378837585449 4.808897495269775 -0.02994459122419357
v 0.03414953872561455 4.815455436706543 -0.03595858812332153
vn 0.00275532724944938 17.43138702790362 17.64443433057031
f 1//1 2//1 3//1 4//1 5//1 6//1 7//1 8//1 
l 1 2 3 4 5 6 7 8 
v 0.03414953872561455 4.815455436706543 -0.1532531827688217
v 3.010378837585449 4.808897495269775 -0.1532531827688217
v 3.024818420410156 4.933711051940918 -0.1532533466815948
v 5.506448745727539 4.357495784759521 -0.1532531827688217
v 5.720859050750732 4.741026878356934 -0.1532531827688217
v 7.085331916809082 4.884304523468018 -0.1532531827688217
v 7.043906211853027 2.399799108505249 -0.1532531827688217
v -0.05769635364413261 2.411007165908813 -0.1532531827688217
vn 1.074930366939952e-09 4.878419978537885e-07 0.3715684581980927
f 9//2 10//2 11//2 12//2 13//2 14//2 15//2 16//2 
l 9 10 11 12 13 14 15 16 
v -0.05769635364413261 2.411007165908813 2.339471578598022
v -0.05769635364413261 2.411007165908813 -0.1532531827688217
v 7.043906211853027 2.399799108505249 -0.1532531827688217
v 7.043906211853027 2.399799108505249 2.349435329437256
vn -0.02793860221668609 -17.70234056040108 -0
f 17//3 18//3 19//3 20//3 
l 17 18 19 20 
v 7.043906211853027 2.399799108505249 2.349435329437256
v 7.043906211853027 2.399799108505249 -0.1532531827688217
v 7.085331916809082 4.884304523468018 -0.1532531827688217
v 7.085331916809082 4.884304523468018 -0.1050774529576302
vn 6.217943160541115 -0.1036756359035564 0
f 21//4 22//4 23//4 24//4 
l 21 22 23 24 
v 7.085331916809082 4.884304523468018 -0.1050774529576302
v 7.085331916809082 4.884304523468018 -0.1532531827688217
v 5.720859050750732 4.741026878356934 -0.1532531827688217
v 5.720859050750732 4.741026878356934 0.03668326511979103
vn -0.006902505118855373 0.06573447612992922 0
f 25//5 26//5 27//5 28//5 
l 25 26 27 28 
v 5.720859050750732 4.741026878356934 0.03668326511979103
v 5.720859050750732 4.741026878356934 -0.1532531827688217
v 5.506448745727539 4.357495784759521 -0.1532531827688217
v 5.506448745727539 4.357495784759521 0.415616899728775
vn -0.07284653357272752 0.04072433172681933 0
f 29//6 30//6 31//6 32//6 
l 29 30 31 32 
v 5.506448745727539 4.357495784759521 0.415616899728775
v 5.506448745727539 4.357495784759521 -0.1532531827688217
v 3.024818420410156 4.933711051940918 -0.1532533466815948
vn 0.3277916265778558 1.411725247891837 0
f 33//7 34//7 35//7 
l 33 34 35 
v 3.024818420410156 4.933711051940918 -0.1532533466815948
v 3.010378837585449 4.808897495269775 -0.1532531827688217
v 3.010378837585449 4.808897495269775 -0.02994459122419357
vn -0.01539058387879422 0.001780524620606627 0
f 36//8 37//8 38//8 
l 36 37 38 
v 3.010378837585449 4.808897495269775 -0.02994459122419357
v 3.010378837585449 4.808897495269775 -0.1532531827688217
v 0.03414953872561455 4.815455436706543 -0.1532531827688217
v 0.03414953872561455 4.815455436706543 -0.03595858812332153
vn 0.0008086505219999651 0.3669946429562624 0
f 39//9 40//9 41//9 42//9 
l 39 40 41 42 
v 0.03414953872561455 4.815455436706543 -0.03595858812332153
v 0.03414953872561455 4.815455436706543 -0.1532531827688217
v -0.05769635364413261 2.411007165908813 -0.1532531827688217
v -0.05769635364413261 2.411007165908813 2.339471578598022
vn -0.2820287852692935 0.01077302671536373 0
f 43//10 44//10 45//10 46//10 
l 43 44 45 46 
v 3.927191495895386 2.388943910598755 2.360646486282349
v 3.910661220550537 2.388886213302612 2.379596710205078
v 3.921953439712524 2.382848978042603 2.366668462753296
v 3.941290378570557 -2.349049091339111 2.357781648635864
v 6.004025459289551 -2.351201057434082 -0.006901697721332312
v 6.00111722946167 -0.1933817714452744 -0.00962394941598177
v 6.187186241149902 -0.1948074847459793 -0.2229267507791519
vn 0.0001151528849732131 2.825915998982964e-07 0.0001004486916826863
f 47//11 48//11 49//11 50//11 51//11 52//11 53//11 
l 47 48 49 50 51 52 53 
v 6.187186241149902 -0.1948074847459793 -0.2229267507791519
v 6.00111722946167 -0.1933817714452744 -0.2229266166687012
v 6.004025459289551 -2.351201057434082 -0.2229266166687012
v 3.941290378570557 -2.349049091339111 -0.2229266166687012
v 3.921953439712524 2.382848978042603 -0.2229266166687012
v 3.910661220550537 2.388886213302612 -0.2229266166687012
v 3.927191495895386 2.388943910598755 -0.2229266166687012
vn 2.893861170694123e-07 3.900240130860766e-10 0.4014991556437977
f 54//12 55//12 56//12 57//12 58//12 59//12 60//12 
l 54 55 56 57 58 59 60 
v 3.927191495895386 2.388943910598755 2.360646486282349
v 3.927191495895386 2.388943910598755 -0.2229266166687012
v 3.910661220550537 2.388886213302612 -0.2229266166687012
v 3.910661220550537 2.388886213302612 2.379596710205078
vn -0.0001490651824269662 0.04270717476532582 0
f 61//13 62//13 63//13 64//13 
l 61 62 63 64 
v 3.910661220550537 2.388886213302612 2.379596710205078
v 3.910661220550537 2.388886213302612 -0.2229266166687012
v 3.921953439712524 2.382848978042603 -0.2229266166687012
v 3.921953439712524 2.382848978042603 2.366668462753296
vn -0.0157120455940003 -0.02938826378124304 -0
f 65//14 66//14 67//14 68//14 
l 65 66 67 68 
v 3.921953439712524 2.382848978042603 2.366668462753296
v 3.921953439712524 2.382848978042603 -0.2229266166687012
v 3.941290378570557 -2.349049091339111 -0.2229266166687012
v 3.941290378570557 -2.349049091339111 2.357781648635864
vn -12.25369995679733 -0.05007484171784427 -0
f 69//15 70//15 71//15 72//15 
l 69 70 71 72 
v 3.941290378570557 -2.349049091339111 2.357781648635864
v 3.941290378570557 -2.349049091339111 -0.2229266166687012
v 6.004025459289551 -2.351201057434082 -0.2229266166687012
v 6.004025459289551 -2.351201057434082 -0.006901697721332312
vn -0.005553596687946083 -5.323317471945188 -0
f 73//16 74//16 75//16 76//16 
l 73 74 75 76 
v 6.004025459289551 -2.351201057434082 -0.006901697721332312
v 6.004025459289551 -2.351201057434082 -0.2229266166687012
v 6.00111722946167 -0.1933817714452744 -0.2229266166687012
v 6.00111722946167 -0.1933817714452744 -0.00962394941598177
vn 0.4661427363588015 0.0006282501128482831 0
f 77//17 78//17 79//17 80//17 
l 77 78 79 80 
v 6.00111722946167 -0.1933817714452744 -0.00962394941598177
v 6.00111722946167 -0.1933817714452744 -0.2229266166687012
v 6.187186241149902 -0.1948074847459793 -0.2229267507791519
vn -0.0003041084497780455 -0.0396890164861774 -0
f 81//18 82//18 83//18 
l 81 82 83 
v 6.187186241149902 -0.1948074847459793 -0.2229267507791519
v 3.927191495895386 2.388943910598755 -0.2229266166687012
v 3.927191495895386 2.388943910598755 2.360646486282349
vn 6.6753106097249 5.838861636650279 -0
f 84//19 85//19 86//19 
l 84 85 86 
v 7.043906211853027 2.399799108505249 2.349435329437256
v 3.927191495895386 2.388943910598755 2.360646486282349
v 6.187186241149902 -0.1948074847459793 -0.2229267507791519
v 7.000541210174561 -0.2010396420955658 -0.2348605394363403
vn 0.05701204093616141 -8.026923572145765 8.077348686474398
f 87//20 88//20 89//20 90//20 
l 87 88 89 90 
v 7.000541210174561 -0.2010396420955658 -0.2348605394363403
v 6.187186241149902 -0.1948074847459793 -0.2348606884479523
v 3.927191734313965 2.388943672180176 -0.2348606884479523
v 7.043906211853027 2.399799108505249 -0.2348606884479523
vn 3.850089247414701e-07 3.367654244357254e-07 -2.087422200833295
f 91//21 92//21 93//21 94//21 
l 91 92 93 94 
v 7.043906211853027 2.399799108505249 2.349435329437256
v 7.043906211853027 2.399799108505249 -0.2348606884479523
v 3.927191734313965 2.388943672180176 -0.2348606884479523
v 3.927191495895386 2.388943910598755 2.360646486282349
vn -0.02805366086729322 8.054512813189376 0
f 95//22 96//22 97//22 98//22 
l 95 96 97 98 
v 3.927191495895386 2.388943910598755 2.360646486282349
v 3.927191734313965 2.388943672180176 -0.2348606884479523
v 6.187186241149902 -0.1948074847459793 -0.2348606884479523
v 6.187186241149902 -0.1948074847459793 -0.2229267507791519
vn -6.706144665519551 -5.865831957343744 -7.718960048919143e-08
f 99//23 100//23 101//23 102//23 
l 99 100 101 102 
v 6.187186241149902 -0.1948074847459793 -0.2229267507791519
v 6.187186241149902 -0.1948074847459793 -0.2348606884479523
v 7.000541210174561 -0.2010396420955658 -0.2348605394363403
vn -7.437417735212115e-05 -0.009706527502949314 -0
f 103//24 104//24 105//24 
l 103 104 105 
v 7.000541210174561 -0.2010396420955658 -0.2348605394363403
v 7.043906211853027 2.399799108505249 -0.2348606884479523
v 7.043906211853027 2.399799108505249 2.349435329437256
vn 6.721337226339226 -0.1120680011532471 0
f 106//25 107//25 108//25 
l 106 107 108 
v -0.05769635364413261 2.411007165908813 2.339471578598022
v -0.1534729599952698 -0.09634396433830261 -0.1033680364489555
v 0.7562850117683411 -0.128834456205368 -0.1267450600862503
v 1.427343845367432 -0.4799290895462036 -0.4625871777534485
v 3.910661220550537 2.388886213302612 2.353985071182251
v 3.927191495895386 2.388943910598755 2.354191303253174
v 3.930008172988892 2.392220973968506 2.35740852355957
vn -0.0207546540064445 -2.224631785519509 2.28419450780252
f 109//26 110//26 111//26 112//26 113//26 114//26 115//26 
l 109 110 111 112 113 114 115 
v 3.930008172988892 2.392220973968506 -0.4625873267650604
v 3.927191495895386 2.388943910598755 -0.4625873267650604
v 3.910661220550537 2.388886213302612 -0.4625873267650604
v 1.427343845367432 -0.4799290895462036 -0.4625871777534485
v 0.7562850117683411 -0.128834456205368 -0.4625873267650604
v -0.1534729599952698 -0.09634396433830261 -0.4625873267650604
v -0.05769635364413261 2.411007165908813 -0.4625873267650604
vn 0 0 -5.400824517209912e-05
f 116//27 117//27 118//27 119//27 120//27 121//27 122//27 
l 116 117 118 119 120 121 122 
v -0.05769635364413261 2.411007165908813 2.339471578598022
v -0.05769635364413261 2.411007165908813 -0.4625873267650604
v -0.1534729599952698 -0.09634396433830261 -0.4625873267650604
v -0.1534729599952698 -0.09634396433830261 -0.1033680364489555
vn -7.025745563381123 0.2683716927516583 0
f 123//28 124//28 125//28 126//28 
l 123 124 125 126 
v -0.1534729599952698 -0.09634396433830261 -0.1033680364489555
v -0.1534729599952698 -0.09634396433830261 -0.4625873267650604
v 0.7562850117683411 -0.128834456205368 -0.4625873267650604
v 0.7562850117683411 -0.128834456205368 -0.1267450600862503
vn -0.01167121143050842 -0.3268026129763433 -0
f 127//29 128//29 129//29 130//29 
l 127 128 129 130 
v 0.7562850117683411 -0.128834456205368 -0.1267450600862503
v 0.7562850117683411 -0.128834456205368 -0.4625873267650604
v 1.427343845367432 -0.4799290895462036 -0.4625871777534485
vn -0.117912417479952 -0.225369919750757 -0
f 131//30 132//30 133//30 
l 131 132 133 
v 3.910661220550537 2.388886213302612 2.353985071182251
v 3.910661220550537 2.388886213302612 -0.4625873267650604
v 3.927191495895386 2.388943910598755 -0.4625873267650604
v 3.927191495895386 2.388943910598755 2.354191303253174
vn 0.0001625086117513774 -0.04655871726676963 0
f 134//31 135//31 136//31 137//31 
l 134 135 136 137 
v 3.927191495895386 2.388943910598755 2.354191303253174
v 3.927191495895386 2.388943910598755 -0.4625873267650604
v 3.930008172988892 2.392220973968506 -0.4625873267650604
v 3.930008172988892 2.392220973968506 2.35740852355957
vn 0.009230762069130094 -0.007933955844649176 0
f 138//32 139//32 140//32 141//32 
l 138 139 140 141 
v 3.930008172988892 2.392220973968506 2.35740852355957
v 3.930008172988892 2.392220973968506 -0.4625873267650604
v -0.05769635364413261 2.411007165908813 -0.4625873267650604
v -0.05769635364413261 2.411007165908813 2.339471578598022
vn 0.0529769833150695 11.24531021742587 0
f 142//33 143//33 144//33 145//33 
l 142 143 144 145 
v 3.910661220550537 2.388886213302612 2.353985071182251
v 1.427343845367432 -0.4799290895462036 -0.4625871777534485
v 1.743920564651489 -0.9398876428604126 -0.1088792234659195
v 1.750648856163025 -2.346763849258423 -0.1104183495044708
v 3.941290378570557 -2.349049091339111 2.357781648635864
v 3.921953439712524 2.382848978042603 2.366668462753296
vn -2.310229288924825 -0.01329209357189143 2.050423204117038
f 146//34 147//34 148//34 149//34 150//34 151//34 
l 146 147 148 149 150 151 
v 3.921953439712524 2.382848978042603 -0.4625873863697052
v 3.941290378570557 -2.349049091339111 -0.4625873863697052
v 1.750648856163025 -2.346763849258423 -0.4625873863697052
v 1.743920564651489 -0.9398876428604126 -0.4625873863697052
v 1.427343845367432 -0.4799290895462036 -0.4625871777534485
v 3.910661220550537 2.388886213302612 -0.4625873267650604
vn -0 -0 -10.36584820100123
f 152//35 153//35 154//35 155//35 156//35 157//35 
l 152 153 154 155 156 157 
v 1.427343845367432 -0.4799290895462036 -0.4625871777534485
v 1.743920564651489 -0.9398876428604126 -0.4625873863697052
v 1.743920564651489 -0.9398876428604126 -0.1088792234659195
vn -0.1626910949046518 -0.1119757697960715 0
f 158//36 159//36 160//36 
l 158 159 160 
v 1.743920564651489 -0.9398876428604126 -0.1088792234659195
v 1.743920564651489 -0.9398876428604126 -0.4625873863697052
v 1.750648856163025 -2.346763849258423 -0.4625873863697052
v 1.750648856163025 -2.346763849258423 -0.1104183495044708
vn -0.4976235983980875 -0.002379851630026408 -0
f 161//37 162//37 163//37 164//37 
l 161 162 163 164 
v 1.750648856163025 -2.346763849258423 -0.1104183495044708
v 1.750648856163025 -2.346763849258423 -0.4625873863697052
v 3.941290378570557 -2.349049091339111 -0.4625873863697052
v 3.941290378570557 -2.349049091339111 2.357781648635864
vn -0.000804791502559965 -0.7714761150632512 -0
f 165//38 166//38 167//38 168//38 
l 165 166 167 168 
v 3.941290378570557 -2.349049091339111 2.357781648635864
v 3.941290378570557 -2.349049091339111 -0.4625873863697052
v 3.921953439712524 2.382848978042603 -0.4625873863697052
v 3.921953439712524 2.382848978042603 2.366668462753296
vn 13.34569879168682 0.05453730358699005 0
f 169//39 170//39 171//39 172//39 
l 169 170 171 172 
v 3.921953439712524 2.382848978042603 2.366668462753296
v 3.921953439712524 2.382848978042603 -0.4625873863697052
v 3.910661220550537 2.388886213302612 -0.4625873267650604
v 3.910661220550537 2.388886213302612 2.353985071182251
vn 0.01708088317191425 0.03194857711363142 0
f 173//40 174//40 175//40 176//40 
l 173 174 175 176 
